<svg width="996" height="675" viewBox="0 0 996 675" fill="none" xmlns="http://www.w3.org/2000/svg">
<g id="undraw_solution_mindset_34bi 1" clip-path="url(#clip0)">
<g id="cube">
<path id="Vector" d="M459.908 386.443L459.875 386.46L315.201 467.019L156.779 387.808L154.049 386.443L162.271 222.003L305.334 120.05L306.913 121.037L454.975 213.781L459.908 386.443Z" fill="url(#paint0_linear)"/>
<path id="Vector_2" opacity="0.3" d="M459.875 386.46L315.201 467.019L156.779 387.808L297.112 289.424L459.875 386.46Z" fill="black"/>
<path id="Vector_3" opacity="0.1" d="M459.908 386.443L297.112 289.424L306.913 121.037L454.975 213.781L459.908 386.443Z" fill="black"/>
<path id="Vector_4" d="M160.165 272.745L159.361 271.607L304.021 169.5L456.834 265.309L456.094 266.49L304.066 171.173L160.165 272.745Z" fill="#F2F2F2"/>
<path id="Vector_5" d="M157.361 328.61L156.579 327.458L300.505 229.743L300.882 229.957L456.963 318.417L456.275 319.629L300.571 231.382L157.361 328.61Z" fill="#F2F2F2"/>
<path id="Vector_6" d="M212.276 415.965L211.542 414.781L356.595 324.9V152.594H357.988V325.676L212.276 415.965Z" fill="#F2F2F2"/>
<path id="Vector_7" d="M269.209 444.428L268.469 443.248L408.138 355.645V184.879H409.531V356.416L269.209 444.428Z" fill="#F2F2F2"/>
<path id="Vector_8" d="M407.612 415.982L245.176 325.73L245.199 325.296L253.75 156.281L255.141 156.352L246.612 324.933L408.289 414.764L407.612 415.982Z" fill="#F2F2F2"/>
<path id="Vector_9" d="M356.507 444.455L195.895 360.288L195.92 359.841L205.388 190.742L206.779 190.82L197.337 359.471L357.154 443.221L356.507 444.455Z" fill="#F2F2F2"/>
</g>
<g id="orbit-ring">
<g id="Vector_10" filter="url(#filter0_d)">
<path d="M156.02 600.04C186.959 600.04 212.04 574.959 212.04 544.02C212.04 513.081 186.959 488 156.02 488C125.081 488 100 513.081 100 544.02C100 574.959 125.081 600.04 156.02 600.04Z" fill="#F2F2F2"/>
<path d="M211.54 544.02C211.54 574.683 186.683 599.54 156.02 599.54C125.357 599.54 100.5 574.683 100.5 544.02C100.5 513.357 125.357 488.5 156.02 488.5C186.683 488.5 211.54 513.357 211.54 544.02Z" stroke="black"/>
</g>
<path id="Vector_11" d="M306.979 587.069C239.068 587.069 173.258 563.522 120.761 520.44C68.2655 477.358 32.3316 417.407 19.0827 350.8C5.83376 284.194 16.0895 215.055 48.1024 155.163C80.1152 95.2706 131.905 48.3313 194.646 22.3428C257.388 -3.6457 327.199 -7.07543 392.186 12.638C457.173 32.3514 513.314 73.9883 551.043 130.454C588.773 186.92 605.756 254.721 599.099 322.305C592.443 389.889 562.559 453.074 514.538 501.095C487.345 528.437 454.998 550.115 419.37 564.872C383.743 579.63 345.542 587.174 306.979 587.069V587.069ZM306.979 2.24072C146.359 2.24072 15.685 132.914 15.685 293.534C15.685 454.154 146.359 584.828 306.979 584.828C467.598 584.828 598.272 454.154 598.272 293.534C598.272 132.914 467.598 2.24072 306.979 2.24072V2.24072Z" fill="#2F2E41"/>
<path id="Vector_12" d="M487.357 119.879C518.294 119.879 543.375 94.7987 543.375 63.8608C543.375 32.9229 518.294 7.8428 487.357 7.8428C456.419 7.8428 431.339 32.9229 431.339 63.8608C431.339 94.7987 456.419 119.879 487.357 119.879Z" fill="#3F3D56"/>
</g>
<path id="Vector_13" d="M884.137 360.814L896.942 395.888C896.942 395.888 883.58 435.971 896.942 437.085C910.303 438.198 911.973 398.671 911.973 398.671L904.736 356.361L884.137 360.814Z" fill="#FFB9B9"/>
<path id="Vector_14" d="M890.261 246.13L899.725 255.595V300.689C899.725 300.689 905.292 309.04 904.179 311.267C903.066 313.493 901.952 313.493 903.065 315.164C904.179 316.834 905.292 317.947 904.179 319.061C903.637 319.783 903.344 320.662 903.344 321.566C903.344 322.469 903.637 323.348 904.179 324.071C905.292 325.184 907.519 326.855 905.849 328.525C904.179 330.195 901.952 329.081 904.179 335.205C906.406 341.329 910.303 342.999 909.189 345.226C908.076 347.453 908.076 353.02 908.076 353.02L884.137 356.361L879.127 293.451L890.261 246.13Z" fill="#D0CDE1"/>
<path id="Vector_15" d="M909.189 352.464L881.353 353.577L882.467 365.268L906.963 360.814L909.189 352.464Z" fill="#3F3D56"/>
<path id="Vector_16" d="M832.641 187.953L829.3 221.357L863.26 226.367L865.765 207.16L868.271 187.953H832.641Z" fill="#FFB9B9"/>
<path id="Vector_17" opacity="0.1" d="M832.641 187.953L829.3 221.357L863.26 226.367L865.765 207.16L868.271 187.953H832.641Z" fill="black"/>
<path id="Vector_18" d="M758.875 346.897L777.804 387.537C777.804 387.537 781.144 406.465 786.155 407.022C791.165 407.579 796.176 387.537 796.176 387.537L789.495 376.959L781.701 346.896L758.875 346.897Z" fill="#FFB9B9"/>
<path id="Vector_19" d="M798.402 383.64L782.814 408.136C782.814 408.136 767.783 641.401 770.01 639.73C772.237 638.06 779.474 637.503 782.258 633.05C785.041 628.596 802.3 633.05 802.3 633.05L812.32 622.472V614.121C812.32 612.451 832.362 484.963 832.362 484.963V517.252C832.362 517.252 826.238 635.833 836.259 634.72C846.28 633.606 866.879 626.926 866.879 626.926C866.879 626.926 896.385 405.352 887.477 397.001C878.57 388.65 874.673 369.722 874.673 369.722L798.402 383.64Z" fill="#2F2E41"/>
<path id="Vector_20" d="M851.291 198.809C866.049 198.809 878.013 186.845 878.013 172.087C878.013 157.329 866.049 145.364 851.291 145.364C836.532 145.364 824.568 157.329 824.568 172.087C824.568 186.845 836.532 198.809 851.291 198.809Z" fill="#FFB9B9"/>
<path id="Vector_21" d="M791.722 226.645L787.825 224.418C787.825 224.418 770.567 236.11 764.999 262.275C759.432 288.441 755.535 295.122 755.535 295.122C755.535 295.122 749.968 296.235 753.865 300.132C757.762 304.029 757.762 303.472 754.422 305.699C751.081 307.926 748.855 303.472 751.081 307.926C753.308 312.38 756.092 311.267 753.865 314.05C751.638 316.834 747.741 316.834 749.968 319.061C752.195 321.287 747.741 326.298 750.525 328.525C753.308 330.752 754.422 331.308 754.422 335.205C754.405 337.48 754.781 339.74 755.535 341.886H784.485C784.485 341.886 778.917 331.308 780.588 329.082C782.258 326.855 782.814 324.628 781.701 323.514C780.588 322.401 777.247 324.628 780.588 321.844C783.928 319.061 785.041 320.731 783.928 317.39C782.814 314.05 780.588 315.72 782.814 314.05C785.041 312.38 786.711 312.937 785.598 311.267C784.485 309.596 782.258 309.596 784.485 308.483C786.711 307.369 788.382 308.483 787.825 305.699C787.268 302.916 786.711 304.029 787.825 302.916C788.938 301.802 800.629 263.945 800.629 262.832C800.629 261.719 791.722 226.645 791.722 226.645Z" fill="#D0CDE1"/>
<path id="Vector_22" d="M786.155 339.659L751.081 341.886L759.989 350.237L784.485 350.794L786.155 339.659Z" fill="#3F3D56"/>
<path id="Vector_23" d="M796.176 381.413L788.938 394.774C788.938 394.774 810.65 397.558 818.444 400.341C826.238 403.125 846.28 407.022 846.28 407.022L851.291 387.537L796.176 381.413Z" fill="#3F3D56"/>
<path id="Vector_24" d="M859.641 387.537L865.765 405.909L890.261 400.898L887.477 383.64L859.641 387.537Z" fill="#3F3D56"/>
<path id="Vector_25" d="M869.662 207.717C869.662 207.717 867.992 206.603 864.095 208.83C860.198 211.057 847.394 212.171 841.27 205.49C835.146 198.809 830.692 193.242 829.022 194.356C827.352 195.469 826.238 208.274 826.238 208.274L820.671 212.727L787.825 224.418L790.608 299.575L795.619 316.834C795.619 316.834 791.722 330.195 796.732 337.989C801.743 345.783 793.949 348.567 793.949 348.567C793.949 348.567 792.279 350.794 793.392 356.361C794.505 361.928 792.279 382.527 792.279 382.527C792.279 382.527 839.6 403.682 889.148 385.31L883.58 364.155L880.797 316.834C880.797 316.834 883.58 309.04 883.024 305.699C882.467 302.359 899.725 255.595 899.725 255.595C899.725 255.595 896.942 232.213 882.467 227.202C867.992 222.192 865.765 217.181 865.765 217.181C865.765 217.181 872.446 209.944 869.662 207.717Z" fill="#D0CDE1"/>
<path id="Vector_26" d="M824.383 175.51C824.383 175.51 821.608 171.348 822.675 166.865C823.313 164.32 823.565 161.694 823.422 159.074C824.616 155.19 826.115 151.407 827.905 147.76C830.146 143.705 829.079 141.997 836.123 140.716C843.167 139.435 840.286 130.257 858.857 140.182C859.483 141.057 860.355 141.727 861.362 142.107C862.369 142.487 863.465 142.56 864.514 142.317C868.356 141.57 869.743 146.906 869.743 146.906C869.743 146.906 872.305 145.412 873.265 147.547C874.226 149.681 881.075 146.266 881.075 160.674C881.075 175.083 873.281 187.953 873.281 187.953C873.281 187.953 873.852 163.716 861.152 161.262C848.451 158.807 834.789 151.656 831.48 160.835C829.694 165.986 827.312 170.912 824.383 175.51Z" fill="#2F2E41"/>
<path id="Vector_27" d="M873.559 181.273C874.943 181.273 876.065 179.777 876.065 177.932C876.065 176.088 874.943 174.592 873.559 174.592C872.176 174.592 871.054 176.088 871.054 177.932C871.054 179.777 872.176 181.273 873.559 181.273Z" fill="#FFB9B9"/>
<path id="Vector_28" d="M859.363 624.953L863.279 636.699C863.279 636.699 863.279 648.445 867.194 654.318C871.109 660.191 875.025 672.916 859.363 673.894C843.702 674.873 836.85 669 836.85 669C836.85 669 839.787 661.17 836.85 658.233C833.914 655.297 836.85 649.424 836.85 649.424L839.787 625.932L859.363 624.953Z" fill="#2F2E41"/>
<path id="Vector_29" d="M783.093 624.953L779.178 636.699C779.178 636.699 779.178 648.445 775.263 654.318C771.347 660.191 767.432 672.916 783.093 673.894C798.755 674.873 805.606 669 805.606 669C805.606 669 802.67 661.17 805.606 658.233C808.543 655.297 805.606 649.424 805.606 649.424L802.67 625.932L783.093 624.953Z" fill="#2F2E41"/>
</g>
<defs>
<filter id="filter0_d" x="96" y="488" width="120.04" height="120.04" filterUnits="userSpaceOnUse" color-interpolation-filters="sRGB">
<feFlood flood-opacity="0" result="BackgroundImageFix"/>
<feColorMatrix in="SourceAlpha" type="matrix" values="0 0 0 0 0 0 0 0 0 0 0 0 0 0 0 0 0 0 127 0"/>
<feOffset dy="4"/>
<feGaussianBlur stdDeviation="2"/>
<feColorMatrix type="matrix" values="0 0 0 0 0 0 0 0 0 0 0 0 0 0 0 0 0 0 0.25 0"/>
<feBlend mode="normal" in2="BackgroundImageFix" result="effect1_dropShadow"/>
<feBlend mode="normal" in="SourceGraphic" in2="effect1_dropShadow" result="shape"/>
</filter>
<linearGradient id="paint0_linear" x1="306.979" y1="120.05" x2="306.979" y2="467.019" gradientUnits="userSpaceOnUse">
<stop stop-color="#12FFE7"/>
<stop offset="1" stop-color="#854FEE"/>
</linearGradient>
<clipPath id="clip0">
<rect width="996" height="674.005" fill="white"/>
</clipPath>
</defs>
</svg>
