<svg width="882" height="564" viewBox="0 0 882 564" fill="none" xmlns="http://www.w3.org/2000/svg">
<path d="M144.734 392.808H181.575L272.363 357.283C272.363 357.283 336.836 330.967 331.573 380.966C326.31 430.965 317.099 498.069 317.099 498.069C317.099 498.069 288.152 484.912 272.363 488.859C256.574 492.806 267.1 408.597 267.1 408.597C267.1 408.597 138.155 470.438 126.313 462.544C114.471 454.649 111.84 399.387 111.84 399.387L144.734 392.808Z" fill="#2F2E41"/>
<path opacity="0.1" d="M144.734 392.808H181.575L272.363 357.283C272.363 357.283 336.836 330.967 331.573 380.966C326.31 430.965 317.099 498.069 317.099 498.069C317.099 498.069 288.152 484.912 272.363 488.859C256.574 492.806 267.1 408.597 267.1 408.597C267.1 408.597 138.155 470.438 126.313 462.544C114.471 454.649 111.84 399.387 111.84 399.387L144.734 392.808Z" fill="black"/>
<path d="M202.778 277.434L247.364 341.494L351.309 428.334C351.309 428.334 447.36 450.702 434.202 466.491C421.045 482.28 340.783 450.702 340.783 450.702C340.783 450.702 221.048 363.861 217.101 357.283C213.154 350.704 169.734 288.863 169.734 288.863L202.778 277.434Z" fill="#FFB9B9"/>
<path opacity="0.1" d="M202.778 277.434L247.364 341.494L351.309 428.334C351.309 428.334 447.36 450.702 434.202 466.491C421.045 482.28 340.783 450.702 340.783 450.702C340.783 450.702 221.048 363.861 217.101 357.283C213.154 350.704 169.734 288.863 169.734 288.863L202.778 277.434Z" fill="black"/>
<path d="M176.312 225.706L205.259 282.284C205.259 282.284 198.68 309.915 188.154 312.547C177.628 315.178 132.892 278.337 132.892 278.337L176.312 225.706Z" fill="#D0CDE1"/>
<path opacity="0.1" d="M176.312 225.706L205.259 282.284C205.259 282.284 198.68 309.915 188.154 312.547C177.628 315.178 132.892 278.337 132.892 278.337L176.312 225.706Z" fill="black"/>
<path d="M529.451 363.514L538.002 398.786C538.097 399.179 538.082 399.591 537.959 399.976L499.171 521.188C499.018 521.668 498.704 522.08 498.283 522.357C497.862 522.634 497.359 522.758 496.857 522.709C496.355 522.659 495.886 522.439 495.527 522.086C495.168 521.732 494.941 521.266 494.884 520.765L489.518 473.546C489.483 473.232 489.515 472.915 489.613 472.615L525.215 363.351C525.364 362.895 525.657 362.5 526.051 362.226C526.444 361.952 526.916 361.814 527.395 361.832C527.874 361.851 528.334 362.025 528.705 362.328C529.076 362.632 529.338 363.048 529.451 363.514Z" fill="#2F2E41"/>
<path d="M526.306 366.493L534.2 396.756L499.99 507.28L492.096 473.07L526.306 366.493Z" fill="#F2F2F2"/>
<path d="M353.941 530.964C355.256 534.911 490.78 529.648 492.096 528.332C493.243 526.684 494.213 524.92 494.99 523.069C496.227 520.437 497.359 517.806 497.359 517.806L492.096 475.201L357.888 470.438C357.888 470.438 354.533 506.543 353.848 523.069C353.677 527.24 353.677 530.174 353.941 530.964Z" fill="#2F2E41"/>
<path opacity="0.1" d="M474.991 480.965L477.622 517.806H418.413V480.965H474.991Z" fill="black"/>
<path opacity="0.1" d="M398.677 492.806L399.03 492.736L397.361 508.596H364.467V492.806H398.677Z" fill="black"/>
<path opacity="0.1" d="M353.941 530.964C355.256 534.911 490.78 529.648 492.096 528.332C493.243 526.684 494.213 524.92 494.99 523.069H353.848C353.677 527.24 353.677 530.174 353.941 530.964Z" fill="black"/>
<path d="M196.049 207.286C228.749 207.286 255.258 180.777 255.258 148.076C255.258 115.376 228.749 88.8668 196.049 88.8668C163.348 88.8668 136.839 115.376 136.839 148.076C136.839 180.777 163.348 207.286 196.049 207.286Z" fill="#FFB9B9"/>
<path d="M192.102 200.707C192.102 200.707 172.365 234.917 168.418 253.337C164.471 271.758 109.208 216.496 109.208 216.496L101.972 197.417C101.972 197.417 153.944 173.076 149.997 153.339C146.05 133.603 192.102 200.707 192.102 200.707Z" fill="#FFB9B9"/>
<path d="M202.628 303.336L256.574 374.388L385.519 470.438C385.519 470.438 478.938 490.175 457.886 504.648C436.834 519.122 376.309 491.491 376.309 491.491C376.309 491.491 246.048 421.755 218.417 392.808C190.786 363.862 139.471 315.178 139.471 315.178L202.628 303.336Z" fill="#FFB9B9"/>
<path d="M130.261 413.861L146.05 438.86L240.281 409.214C260.957 402.71 283.629 405.103 301.968 416.657C318.415 427.018 328.941 443.465 305.257 467.807C257.89 516.49 226.312 490.175 226.312 490.175C226.312 490.175 67.104 565.173 40.7887 528.332C14.4734 491.491 13.1577 473.07 13.1577 473.07C13.1577 473.07 114.472 409.913 130.261 413.861Z" fill="#2F2E41"/>
<path d="M327.625 500.701C327.625 500.701 369.73 528.332 319.731 541.49C269.732 554.647 232.89 536.227 232.89 536.227C232.89 536.227 189.47 536.227 189.47 513.859C189.47 491.491 203.944 488.859 203.944 488.859L248.68 495.438C248.68 495.438 302.626 480.965 327.625 500.701Z" fill="#D0CDE1"/>
<path d="M244.621 133.182C248.651 134.978 252.647 137.105 257.029 137.626C261.41 138.148 266.399 136.618 268.472 132.723C269.592 130.619 269.72 128.145 269.772 125.762C269.931 118.537 269.408 110.726 264.83 105.135C261.916 101.576 257.662 99.333 254.646 95.8609C252.485 93.3732 251.047 90.358 249.498 87.4494C243.632 76.4322 234.947 65.8438 222.876 62.6677C217.836 61.3414 212.548 61.4061 207.337 61.4797L176.94 61.9085C172.02 61.9779 167.026 62.0586 162.317 63.4823C152.533 66.4406 145.409 74.6683 138.884 82.5366C134.003 88.4233 129.109 94.3709 125.446 101.083C120.194 110.879 117.538 121.857 117.732 132.97C117.691 135.82 118.059 138.662 118.824 141.408C119.72 143.926 120.829 146.363 122.141 148.692C127.841 159.889 131.226 173.874 124.806 184.674C135.958 180.119 146.992 174.146 154.348 164.607C157.639 160.339 160.22 155.343 164.606 152.212C168.992 149.08 176.138 148.809 178.952 153.405C179.919 155.264 180.417 157.331 180.403 159.427C180.608 162.877 180.602 166.46 182.065 169.591C183.528 172.722 187.012 175.248 190.339 174.312C196.067 172.698 195.519 163.906 199.931 159.912C203.282 156.878 208.452 157.458 212.757 156.081C217.773 154.477 221.536 150.132 223.681 145.322C225.311 141.666 225.287 132.099 228.371 130.119C232.239 127.636 241.036 131.583 244.621 133.182Z" fill="#2F2E41"/>
<path d="M97.2716 191.176C99.9352 190.465 102.74 190.472 105.4 191.197C113.846 193.464 132.78 199.467 136.839 208.601C142.103 220.443 160.523 238.864 160.523 238.864C160.523 238.864 185.523 263.863 180.26 280.968C174.997 298.073 155.26 317.81 155.26 317.81C155.26 317.81 160.523 399.387 134.208 420.439C107.893 441.492 97.3665 427.018 97.3665 446.755C97.3665 466.491 15.7892 528.332 0 490.175C0 490.175 7.89459 419.124 5.26306 394.124C2.66948 369.485 6.46634 215.759 97.2716 191.176Z" fill="#D0CDE1"/>
<path d="M139.471 224.39C139.471 224.39 219.733 283.6 205.259 308.599C205.259 308.599 156.576 332.283 146.05 330.967C135.524 329.652 94.7351 283.6 84.2089 279.653C73.6828 275.705 68.4198 204.654 139.471 224.39Z" fill="#D0CDE1"/>
</svg>
